/vscmnt/brussel_pixiu_data/_data_brussel/112/vsc11236/PredSimResults/SUBJ09mtu3D/worker4.mot
version=1
nRows=4
nColumns=50
inDegrees=yes
endheader
                time	         pelvis_tilt	         pelvis_list	     pelvis_rotation	           pelvis_tx	           pelvis_ty	           pelvis_tz	       hip_flexion_r	     hip_adduction_r	      hip_rotation_r	        knee_angle_r	       ankle_angle_r	         mtp_angle_r	       hip_flexion_l	     hip_adduction_l	      hip_rotation_l	        knee_angle_l	       ankle_angle_l	         mtp_angle_l	    lumbar_extension	      lumbar_bending	     lumbar_rotation	 ercspn_r/activation	 intobl_r/activation	 extobl_r/activation	    abd_r/activation	    add_r/activation	hamstrings_r/activation	bifemsh_r/activation	glut_max_r/activation	iliopsoas_r/activation	rect_fem_r/activation	  vasti_r/activation	gastroc_r/activation	 soleus_r/activation	tib_ant_r/activation	 ercspn_l/activation	 intobl_l/activation	 extobl_l/activation	    abd_l/activation	    add_l/activation	hamstrings_l/activation	bifemsh_l/activation	glut_max_l/activation	iliopsoas_l/activation	rect_fem_l/activation	  vasti_l/activation	gastroc_l/activation	 soleus_l/activation	tib_ant_l/activation	
          0.00000000	         -3.08990500	         -2.41268660	          7.43568475	          0.00000000	          0.99015113	         -0.00526419	         26.71632979	          0.15097707	         -2.14825675	         -3.08118763	          4.54043822	          0.23212650	        -14.93225716	         -3.84007835	          3.54879958	         -8.33427578	          8.80671975	         29.90079803	        -13.65803597	          0.84916597	         -2.69165100	          0.04531521	          0.16405130	          0.03965639	          0.04708271	          0.15291697	          0.07288136	          0.20142518	          0.03022622	          0.08301828	          0.01711246	          0.00999999	          0.01279580	          0.00999999	          0.29360172	          0.00999999	          0.00999999	          0.00999999	          0.03137791	          0.00999999	          0.00999999	          0.23834192	          0.01379391	          0.22625596	          0.00999999	          0.00999999	          0.37132015	          0.20897124	          0.00999999	
          0.01219192	         -3.05997729	         -2.45040021	          7.39625908	          0.01926872	          0.98801857	         -0.00461863	         26.50978958	          0.38897016	         -2.23850811	         -4.45774544	          3.97997219	          0.23379735	        -15.59646450	         -3.98572078	          3.14072139	         -9.21152707	          7.90164885	         31.72490149	        -13.25644139	          1.18631322	         -2.79289651	          0.03766229	          0.13634598	          0.03295914	          0.03913136	          0.13120202	          0.06057300	          0.16740808	          0.09539808	          0.06899798	          0.01422248	          0.01203197	          0.01741854	          0.01741853	          0.30001906	          0.01838624	          0.00999999	          0.00999999	          0.02607875	          0.01940785	          0.02373399	          0.19809025	          0.01203198	          0.21808526	          0.00999999	          0.00999999	          0.34301272	          0.17997641	          0.00999999	
          0.02438384	         -3.01615621	         -2.49829831	          7.32273485	          0.03878315	          0.98613876	         -0.00392731	         26.23412076	          0.62347940	         -2.32191000	         -6.00566136	          3.53817534	          0.21362805	        -16.05803421	         -4.12484870	          2.70397397	        -10.49482868	          6.89582049	         33.56520520	        -12.84046406	          1.54175907	         -2.87923089	          0.03130180	          0.11331959	          0.02739293	          0.11509390	          0.13761785	          0.05172581	          0.13913586	          0.11510605	          0.05734546	          0.01182057	          0.00999999	          0.01447686	          0.01447686	          0.35211795	          0.03551428	          0.00999999	          0.00999999	          0.02167452	          0.01613021	          0.01972575	          0.16463636	          0.01000000	          0.22543942	          0.00999999	          0.00999999	          0.30766614	          0.14958163	          0.00999999	
          0.03657576	         -2.96422475	         -2.54539022	          7.21287590	          0.05818459	          0.98479602	         -0.00318513	         25.95380135	          0.85776657	         -2.41053351	         -7.51037991	          2.93597506	          0.18544984	        -16.20087007	         -4.24242969	          2.25270757	        -12.32929369	          5.74595023	         35.36644644	        -12.44927365	          1.90260540	         -2.94629957	          0.02871039	          0.09418195	          0.02276676	          0.15738188	          0.16833744	          0.04299025	          0.11563831	          0.13359538	          0.04766084	          0.01000001	          0.02898660	          0.01203198	          0.01203198	          0.38105543	          0.06377575	          0.00999999	          0.00999999	          0.01801408	          0.02874169	          0.01836053	          0.13683224	          0.00999999	          0.23377239	          0.00999999	          0.00999999	          0.25570685	          0.12431997	          0.00999999	
